<?xml version="1.0" encoding="UTF-8" standalone="no"?>
<svg width="126px" height="33px" viewBox="0 0 126 33" version="1.1" xmlns="http://www.w3.org/2000/svg" xmlns:xlink="http://www.w3.org/1999/xlink">
    <defs></defs>
    <g id="Page-1" stroke="none" stroke-width="1" fill="none" fill-rule="evenodd">
        <g id="Group-10">
            <path d="M42.6,20.164 L42.6,13.234 L43.932,13.234 C45.732,13.234 46.992,14.026 46.992,16.708 C46.992,19.264 45.75,20.164 43.788,20.164 L42.6,20.164 Z M44.004,22 C46.974,22 49.278,20.506 49.278,16.582 C49.278,12.856 47.064,11.398 44.13,11.398 L40.422,11.398 L40.422,22 L44.004,22 Z M58.268,20.11 L53.534,20.11 L53.534,17.572 L57.71,17.572 L57.71,15.736 L53.534,15.736 L53.534,13.288 L58.268,13.288 L58.268,11.398 L51.356,11.398 L51.356,22 L58.268,22 L58.268,20.11 Z M61.588,11.398 L59.248,11.398 L62.74,22 L65.422,22 L68.932,11.398 L66.646,11.398 L64.774,17.464 C64.324,18.958 64.18,20.218 64.18,20.218 L64.108,20.218 C64.108,20.218 63.964,18.976 63.478,17.446 L61.588,11.398 Z M77.346,20.11 L72.612,20.11 L72.612,17.572 L76.788,17.572 L76.788,15.736 L72.612,15.736 L72.612,13.288 L77.346,13.288 L77.346,11.398 L70.434,11.398 L70.434,22 L77.346,22 L77.346,20.11 Z M79.568,11.398 L79.568,22 L86.102,22 L86.102,20.11 L81.746,20.11 L81.746,11.398 L79.568,11.398 Z M91.996,22.216 C95.056,22.216 96.946,20.254 96.946,16.708 C96.946,13.144 95.056,11.182 91.996,11.182 C88.936,11.182 87.046,13.144 87.046,16.708 C87.046,20.254 88.936,22.216 91.996,22.216 L91.996,22.216 Z M91.996,13.126 C93.76,13.126 94.66,14.494 94.66,16.726 C94.66,18.976 93.778,20.326 91.996,20.326 C90.214,20.326 89.314,18.976 89.314,16.726 C89.314,14.494 90.214,13.126 91.996,13.126 L91.996,13.126 Z M101.202,13.234 L102.552,13.234 C103.686,13.234 104.244,13.81 104.244,14.962 C104.244,16.024 103.794,16.636 102.552,16.636 L101.202,16.636 L101.202,13.234 Z M101.202,22 L101.202,18.418 L102.822,18.418 C105.144,18.418 106.422,17.086 106.422,14.872 C106.422,12.64 105.306,11.398 102.606,11.398 L99.024,11.398 L99.024,22 L101.202,22 Z M115.196,20.11 L110.462,20.11 L110.462,17.572 L114.638,17.572 L114.638,15.736 L110.462,15.736 L110.462,13.288 L115.196,13.288 L115.196,11.398 L108.284,11.398 L108.284,22 L115.196,22 L115.196,20.11 Z M125.752,22 C125.428,21.658 125.284,21.298 125.158,20.866 L124.618,18.85 C124.348,17.824 123.826,17.41 122.836,17.266 L122.836,17.212 C124.186,17.104 125.194,16.222 125.194,14.566 C125.194,12.316 123.826,11.398 121.432,11.398 L117.418,11.398 L117.418,22 L119.596,22 L119.596,18.076 L120.766,18.076 C121.666,18.076 122.152,18.256 122.386,19.264 L122.8,20.938 C122.908,21.37 123.034,21.73 123.322,22 L125.752,22 Z M119.596,13.234 L121.306,13.234 C122.404,13.234 122.962,13.792 122.962,14.746 C122.962,15.826 122.386,16.258 121.288,16.258 L119.596,16.258 L119.596,13.234 Z" id="DEVELOPER" fill="#FFFFFF"></path>
            <g id="Xero-logo---Blue">
                <path d="M32.9362971,16.4961837 C32.9362971,7.38560204 25.5632343,0 16.4681766,0 C7.37306282,0 0,7.38560204 0,16.4961837 C0,25.6067092 7.37306282,32.9923112 16.4681766,32.9923112 C25.5632343,32.9923112 32.9362971,25.6067092 32.9362971,16.4961837 Z" id="Fill-1" fill="#FFFFFF"></path>
                <path d="M10.6934007,13.629898 C10.7865739,13.5347704 10.8385671,13.4088316 10.8385671,13.2753163 C10.8385671,12.996949 10.6126655,12.7708878 10.3348268,12.7708878 C10.1994652,12.7708878 10.0725076,12.8240357 9.97681324,12.9211276 C9.97658913,12.9215765 7.16889983,15.7323571 7.16889983,15.7323571 L4.34849236,12.9168622 C4.25313413,12.8226888 4.12690492,12.7708878 3.993,12.7708878 C3.7153854,12.7708878 3.48948387,12.9967806 3.48948387,13.2748673 C3.48948387,13.4105714 3.54349406,13.5378571 3.64058913,13.6337704 L6.45068761,16.4481429 L3.64210187,19.2668367 C3.54326995,19.3641531 3.48948387,19.4918316 3.48948387,19.6279847 C3.48948387,19.9062398 3.7153854,20.1321327 3.993,20.1321327 C4.12712903,20.1321327 4.25347029,20.0799388 4.34849236,19.9847551 L7.16458574,17.1676888 L9.96997793,19.9744286 C10.0694261,20.0775255 10.1977844,20.1324694 10.3348268,20.1324694 C10.6123854,20.1324694 10.8382869,19.9062398 10.8382869,19.6279847 C10.8382869,19.4937398 10.7864058,19.3676327 10.6918319,19.2723367 L7.88296604,16.4521276 L10.6934007,13.629898 Z" id="Fill-2" fill="#2F2C33"></path>
                <path d="M24.5904907,16.4512296 C24.5904907,16.9566684 25.0007216,17.3678776 25.5059745,17.3678776 C26.0099949,17.3678776 26.4205059,16.9566684 26.4205059,16.4512296 C26.4205059,15.9456786 26.0099949,15.5345816 25.5059745,15.5345816 C25.0007216,15.5345816 24.5904907,15.9456786 24.5904907,16.4512296" id="Fill-3" fill="#2F2C33"></path>
                <path d="M22.8549372,16.4517347 C22.8549372,14.9880051 24.0436655,13.7971429 25.5050221,13.7971429 C26.9657623,13.7971429 28.1546027,14.9880051 28.1546027,16.4517347 C28.1546027,17.9150714 26.9657623,19.1055408 25.5050221,19.1055408 C24.0436655,19.1055408 22.8549372,17.9150714 22.8549372,16.4517347 M21.8126078,16.4517347 C21.8126078,18.4908878 23.4689389,20.1498673 25.5050221,20.1498673 C27.5410492,20.1498673 29.1983328,18.4908878 29.1983328,16.4517347 C29.1983328,14.4122449 27.5410492,12.7527602 25.5050221,12.7527602 C23.4689389,12.7527602 21.8126078,14.4122449 21.8126078,16.4517347" id="Fill-4" fill="#2F2C33"></path>
                <path d="M21.3955976,12.8156173 C20.9305161,12.8156173 20.4819626,12.9625459 20.107365,13.2517449 C20.057893,13.0254031 19.8559711,12.8552398 19.6155025,12.8552398 C19.3386723,12.8552398 19.1168048,13.0773724 19.1161324,13.3552347 C19.1161324,13.3561888 19.1178132,19.5848265 19.1178132,19.5848265 C19.1185416,19.8621276 19.3444431,20.0876276 19.6213854,20.0876276 C19.8983837,20.0876276 20.1241171,19.8621276 20.1248455,19.5840969 C20.1248455,19.5830306 20.1251817,15.7537398 20.1251817,15.7537398 C20.1251817,14.4770102 20.2416621,13.9615255 21.3333514,13.8248673 C21.4343684,13.8122959 21.5440696,13.8142602 21.5445178,13.8142602 C21.8433107,13.8039898 22.0555416,13.598301 22.0555416,13.3204388 C22.0555416,13.0422959 21.8289117,12.8160663 21.5505127,12.8160663 L21.3955976,12.8156173 Z" id="Fill-5" fill="#2F2C33"></path>
                <path d="M11.8816808,15.8426939 C11.8816808,15.829 11.8826893,15.8145204 11.8834177,15.8003776 C12.1758234,14.6426837 13.2224109,13.7860867 14.4688472,13.7860867 C15.7304109,13.7860867 16.786635,14.6637857 17.0641935,15.8426939 L11.8816808,15.8426939 L11.8816808,15.8426939 Z M18.0951494,15.7475102 C17.8782122,14.7183929 17.3158115,13.8730765 16.4592683,13.3302602 C15.2073413,12.534051 13.5540917,12.578051 12.3447453,13.4394745 C11.3583871,14.142352 10.788983,15.292301 10.788983,16.4768776 C10.788983,16.7738776 10.8247284,17.0736276 10.8991324,17.3687194 C11.271601,18.8364898 12.5312037,19.9474898 14.0330119,20.1317398 C14.4785959,20.1857296 14.9123022,20.1598571 15.361472,20.0432347 C15.7474431,19.9492296 16.1209202,19.7923673 16.465039,19.5715255 C16.8222122,19.3415357 17.1205569,19.03825 17.4097131,18.6751939 C17.4154278,18.6685153 17.4214228,18.6626224 17.4271375,18.6554949 C17.6277148,18.4063673 17.5905688,18.0520663 17.3701579,17.8829133 C17.1842598,17.7401939 16.8720764,17.6823316 16.6266214,17.9973469 C16.5738438,18.0727194 16.5149593,18.1500561 16.4500798,18.2276173 C16.2548251,18.4437449 16.0126197,18.6531378 15.7222869,18.8156122 C15.3529559,19.0132755 14.9319677,19.1263061 14.4845908,19.1288878 C13.0198727,19.1124439 12.2361647,18.0882653 11.9573175,17.3572143 C11.9086299,17.2208929 11.8710917,17.0791837 11.844871,16.9334898 C11.8415093,16.9061582 11.8389321,16.8798367 11.8379236,16.8557041 C12.1408625,16.8557041 17.093944,16.8546378 17.093944,16.8546378 C17.8145654,16.8396531 18.2023294,16.3301735 18.0951494,15.7475102 L18.0951494,15.7475102 Z" id="Fill-6" fill="#2F2C33"></path>
            </g>
        </g>
    </g>
</svg>